<svg width="24" height="25" viewBox="0 0 24 25" fill="none" xmlns="http://www.w3.org/2000/svg">
<path d="M20.2103 3.65892C20.2103 3.65892 22.1528 2.87978 21.9903 4.77183C21.9368 5.55097 21.4513 8.27822 21.0733 11.2276L19.7783 19.9653C19.7783 19.9653 19.6703 21.2454 18.6988 21.468C17.7278 21.6902 16.2708 20.6889 16.0008 20.4662C15.7848 20.2991 11.9537 17.7945 10.6047 16.5705C10.2267 16.2362 9.79473 15.5687 10.6587 14.7896L16.3248 9.22398C16.9723 8.55542 17.6198 6.99714 14.9218 8.8897L7.36671 14.1765C7.36671 14.1765 6.5032 14.7335 4.88468 14.2326L1.37665 13.1192C1.37665 13.1192 0.0816383 12.2845 2.29416 11.4498C7.69071 8.83416 14.3283 6.16297 20.2098 3.65841" fill="#F1F1F1"/>
</svg>
